<?xml version="1.0" standalone="no"?><!DOCTYPE svg PUBLIC "-//W3C//DTD SVG 1.1//EN" "http://www.w3.org/Graphics/SVG/1.1/DTD/svg11.dtd"><svg t="1557970087545" class="icon" style="" viewBox="0 0 1024 1024" version="1.1" xmlns="http://www.w3.org/2000/svg" p-id="7899" xmlns:xlink="http://www.w3.org/1999/xlink" width="200" height="200"><defs><style type="text/css"></style></defs><path d="M562.5 157.33q59.4 56.1 59.4 151.8c0 46.2-14.3 88-41.8 124.3-12.1 15.4-40.7 42.9-86.9 84.7-26.4 23.1-44 44-55 62.7-15.4 26.4-23.1 53.9-23.1 84.7l-0.1 89.72h-67.1l0.14-89.72c0-31.9 6.6-61.6 19.8-88 15.4-33 48.4-73.7 101.2-119.9 24.2-24.2 41.8-41.8 50.6-52.8 23.1-29.7 35.2-60.5 35.2-93.5 0-47.3-14.3-84.7-40.7-112.2-28.6-28.6-69.3-41.8-121-41.8-59.4 0-103.4 19.8-133.1 59.4-26.4 33-39.6 79.2-39.6 136.4h-66c0-74.8 20.9-134.2 60.5-180.4 44-50.6 104.5-74.8 181.5-74.8 69.26 0 124.26 19.8 166.06 59.4zM347.88 860.1h67.07v67.07h-67.07zM801.28 391.06h67.07v67.07h-67.07zM801.28 861.1h67.07v67.07h-67.07z" p-id="7900"></path></svg>